<svg xmlns="http://www.w3.org/2000/svg"  viewBox="0 0 128 128" width="128px" height="128px"><path fill="#75fa61" d="M97.8,97l-15-44c-0.1-0.3-0.3-0.6-0.5-0.8l-32-42.1C46.1,4.4,39.2,1,32.1,1H15c-0.9,0-1.8,0.4-2.4,1.2 s-0.8,1.7-0.5,2.6l16.3,59.5L5.6,73.7c-2.8,1.2-4.5,3.9-4.4,7s2.2,5.6,5.1,6.4L40.6,97c9.3,2.7,18.9,4,28.5,4H95 c1,0,1.9-0.5,2.4-1.3C98,99,98.2,97.9,97.8,97z"/><path fill="#fff" d="M124,124H98.1c-9.4,0-18.7-1.3-27.7-3.9l-34.2-9.9c-3.7-1.1-4-6.2-0.4-7.7L61,92L44,30h17.1 c6.3,0,12.1,2.9,15.9,7.9L109,80h15"/><path fill="#04b400" d="M47,95c-1.1,0-2.1-0.6-2.7-1.6c-0.8-1.5-0.2-3.3,1.3-4l4.7-2.4L39.1,44.8c-0.4-1.6,0.5-3.2,2.1-3.7 c1.6-0.4,3.2,0.5,3.7,2.1L58,91c0.4,1.4-0.7,0.4-2,1l-7.6,2.7C47.9,94.9,47.5,95,47,95z"/><path fill="#444b54" d="M70.4,123.1c-0.3,0-0.6,0-0.8-0.1l-34.2-9.9c-2.9-0.8-4.9-3.4-5.1-6.4s1.5-5.8,4.4-7l22.8-9.5L41.1,30.8 c-0.2-0.9-0.1-1.9,0.5-2.6S43.1,27,44,27h17.1c7.1,0,14,3.4,18.3,9.1L110.5,77H124c1.7,0,3,1.3,3,3s-1.3,3-3,3h-15 c-0.9,0-1.8-0.4-2.4-1.2l-32-42.1c-3.2-4.2-8.3-6.7-13.5-6.7H47.9l16,58.2c0.4,1.5-0.3,3-1.7,3.6l-25.2,10.5 c-0.6,0.3-0.7,0.8-0.7,1.1s0.1,0.8,0.8,1l34.2,9.9c1.6,0.5,2.5,2.1,2.1,3.7C72.9,122.2,71.7,123.1,70.4,123.1z"/></svg>